<?xml version="1.0" standalone="no"?>
<!DOCTYPE svg PUBLIC "-//W3C//DTD SVG 20010904//EN"
 "http://www.w3.org/TR/2001/REC-SVG-20010904/DTD/svg10.dtd">
<svg version="1.0" xmlns="http://www.w3.org/2000/svg"
 width="1635.000000pt" height="783.000000pt" viewBox="0 0 1635.000000 783.000000"
 preserveAspectRatio="xMidYMid meet">

<g transform="translate(0.000000,783.000000) scale(0.100000,-0.100000)"
fill="#000000" stroke="none">
<path d="M0 3915 l0 -3915 8175 0 8175 0 0 3915 0 3915 -8175 0 -8175 0 0
-3915z m14058 1670 c48 -33 52 -38 52 -76 l0 -41 -23 29 c-80 98 -98 123 -91
123 5 0 33 -16 62 -35z m340 -116 c-24 -20 -45 -35 -47 -33 -2 2 16 43 40 91
l44 88 3 -54 c3 -53 2 -55 -40 -92z m-322 18 c34 -42 51 -56 63 -52 9 4 50 13
91 20 72 13 77 16 124 67 l49 53 -36 -68 c-21 -37 -37 -76 -37 -86 0 -10 12
-53 26 -96 19 -56 23 -80 15 -88 -8 -8 -11 -4 -11 14 0 13 -5 31 -11 39 -9 13
-10 12 -5 -2 3 -10 0 -18 -6 -18 -9 0 -9 -3 0 -12 7 -7 12 -18 12 -25 0 -21
-63 20 -78 51 -8 15 -16 25 -19 23 -2 -3 0 -14 6 -25 6 -12 11 -32 11 -47 0
-15 4 -24 10 -20 6 3 10 -3 10 -14 0 -12 -4 -21 -10 -21 -5 0 -10 5 -10 12 0
6 -7 3 -15 -8 -8 -10 -15 -14 -15 -8 0 5 -6 19 -14 29 -12 16 -16 17 -30 6
-18 -15 -21 -8 -6 20 8 15 7 19 -4 19 -18 0 -27 -26 -20 -57 6 -23 5 -25 -17
-18 -21 7 -19 4 9 -20 l33 -28 51 17 c28 9 52 15 52 14 14 -38 115 -112 139
-102 11 4 28 27 72 98 17 28 18 29 32 10 31 -41 -3 -229 -44 -242 -7 -2 -27
17 -45 42 -17 25 -34 44 -36 41 -3 -3 2 -13 10 -22 9 -10 17 -24 20 -32 2 -8
-16 -82 -42 -165 l-45 -151 -39 -13 c-21 -6 -55 -15 -76 -18 -38 -6 -38 -6
-90 67 -64 91 -95 153 -103 201 -7 48 24 202 53 259 17 32 18 40 7 31 -24 -20
-56 -114 -68 -198 -14 -100 2 -153 81 -268 64 -94 68 -102 46 -89 -25 14 -106
120 -106 138 0 10 -16 35 -35 56 -45 50 -45 60 5 328 22 117 40 228 40 246 0
18 -13 62 -29 97 -15 35 -31 75 -35 89 -7 23 -7 23 8 4 9 -11 37 -46 62 -78z
m-949 -68 c66 -25 123 -109 123 -181 0 -45 -26 -112 -59 -154 l-20 -26 -14 34
c-46 106 -173 143 -239 69 -32 -36 -38 -94 -13 -127 23 -30 18 -37 -21 -31
-86 14 -152 94 -139 166 18 96 137 219 245 252 37 11 105 10 137 -2z m1313
-193 c0 -5 -75 -56 -83 -56 -22 0 -1 24 36 40 46 21 47 22 47 16z m-5450 -76
c702 -9 1384 -21 2373 -39 235 -4 429 -10 432 -13 3 -3 -5 -147 -19 -319 -14
-173 -30 -386 -36 -474 -5 -88 -13 -186 -16 -218 l-6 -57 -67 -40 c-152 -88
-236 -170 -282 -275 -26 -60 -38 -206 -20 -256 6 -18 10 -33 8 -35 -2 -3 -455
-28 -1247 -69 -261 -14 -648 -34 -860 -45 -847 -45 -955 -49 -963 -41 -4 4
-18 55 -31 112 -32 140 -65 278 -281 1189 -82 347 -135 583 -130 590 2 3 93 5
202 3 109 -2 533 -8 943 -13z m4180 -143 c0 -8 12 -30 28 -50 26 -35 29 -36
93 -37 92 0 164 -15 229 -48 51 -25 55 -30 55 -62 0 -30 -5 -37 -35 -52 -45
-22 -52 -22 -49 0 3 30 -1 35 -16 22 -10 -9 -12 -17 -5 -30 7 -13 0 -35 -25
-86 -37 -72 -85 -211 -85 -244 0 -24 -43 -58 -85 -66 -32 -6 -32 -6 -24 -47 4
-23 5 -45 3 -49 -7 -12 -62 -10 -86 3 -17 9 -19 17 -14 48 l6 37 -65 32 c-36
17 -73 41 -82 52 -11 13 -24 18 -39 14 -28 -7 -68 30 -61 56 3 13 0 17 -9 13
-18 -7 -17 1 2 57 18 51 13 113 -12 162 l-17 32 42 38 c23 20 58 42 77 48 21
7 34 18 34 29 0 10 25 45 56 79 53 60 84 77 84 49z m-374 -61 c-8 -48 -37 -91
-87 -127 -24 -17 -52 -22 -147 -28 -102 -7 -123 -11 -159 -34 -22 -14 -50 -41
-62 -60 -18 -29 -28 -35 -67 -40 -56 -6 -94 -38 -94 -80 0 -24 3 -28 20 -24
13 3 25 -2 35 -16 21 -30 19 -34 -21 -47 -36 -12 -87 -7 -130 12 l-25 12 33
10 33 11 0 85 c0 73 3 90 23 117 27 38 68 69 104 78 25 6 26 5 33 -59 3 -36
11 -66 16 -66 5 0 9 10 9 23 0 37 55 103 106 127 41 18 61 21 150 18 140 -4
141 14 2 26 -128 11 -177 -3 -229 -62 l-32 -37 6 39 c7 42 45 96 91 130 38 29
140 27 214 -3 71 -28 116 -28 147 4 14 13 25 30 25 36 0 7 3 10 6 6 4 -3 3
-27 0 -51z m33 -177 c48 -34 71 -79 71 -139 0 -56 -23 -96 -70 -120 -40 -21
-105 -26 -128 -11 -10 6 -6 15 17 39 19 18 31 41 31 57 0 39 -35 99 -77 134
-33 27 -34 31 -17 36 10 4 33 13 49 20 47 21 79 17 124 -16z m2871 8 c0 -19
-44 -85 -141 -214 -117 -155 -233 -341 -331 -531 -46 -89 -87 -162 -92 -162
-5 0 -6 33 -2 78 15 163 25 330 26 414 l0 86 83 58 c237 167 419 283 445 284
6 0 12 -6 12 -13z m-3075 -37 c52 -32 95 -97 95 -142 0 -34 -5 -41 -35 -59
-19 -12 -35 -25 -35 -31 0 -5 18 -17 40 -25 22 -9 40 -20 40 -25 0 -5 9 -6 20
-3 28 9 54 -13 39 -31 -14 -17 -46 -18 -53 -1 -3 8 -11 4 -23 -13 -10 -13 -30
-39 -45 -56 l-27 -31 25 -37 c14 -21 24 -39 22 -40 -1 -2 -14 -9 -26 -15 -13
-7 -21 -15 -19 -18 3 -2 17 3 31 12 19 13 24 23 20 39 -4 17 1 25 18 33 37 17
197 55 211 50 12 -4 -309 -337 -324 -337 -5 0 -38 23 -76 51 -37 28 -77 56
-90 62 -13 6 -23 13 -23 16 0 4 37 28 81 55 64 38 83 46 90 35 5 -8 9 -20 9
-26 0 -7 4 -13 8 -13 5 0 3 21 -3 48 l-12 47 -84 5 c-107 7 -175 36 -184 77
-4 15 -13 50 -20 78 -16 57 -13 65 15 40 27 -24 70 -13 70 19 0 12 -9 31 -21
42 -20 18 -22 18 -51 1 -38 -22 -48 -21 -48 2 0 11 9 23 20 26 11 3 20 11 20
16 0 16 -39 10 -49 -8 -9 -17 -11 -17 -28 0 -17 18 -17 19 1 33 11 8 39 14 63
14 39 0 44 3 57 33 40 95 186 136 281 77z m1035 -70 c15 -4 24 -13 22 -23 -4
-25 17 -30 36 -8 15 18 25 20 80 14 56 -5 65 -9 77 -34 8 -15 19 -29 25 -31 6
-2 6 -17 -2 -43 -12 -40 -12 -40 -15 -10 -6 55 -13 75 -28 75 -7 0 -16 -4 -19
-9 -3 -5 2 -8 12 -7 13 1 18 -8 20 -38 2 -21 -1 -43 -7 -49 -8 -8 -11 -4 -11
14 0 13 -7 32 -15 43 -13 18 -14 17 -19 -5 -11 -55 -15 -89 -11 -89 3 0 47 11
99 25 121 32 126 32 126 -4 0 -44 -28 -71 -80 -77 -25 -3 -56 -8 -70 -11 l-25
-5 23 -9 c23 -9 50 -54 39 -65 -8 -8 -107 55 -107 67 0 5 -9 18 -21 30 -17 17
-25 19 -43 11 -16 -8 -17 -11 -5 -11 9 -1 22 -8 29 -16 7 -8 39 -33 72 -55
l60 -40 -29 -11 c-38 -15 -125 -23 -157 -15 -34 8 -54 49 -36 71 18 22 -4 19
-31 -5 -16 -13 -18 -18 -7 -14 16 6 17 3 3 -42 -36 -118 -5 -203 70 -191 21 3
36 1 39 -6 4 -7 3 2 0 18 -9 42 -7 66 11 107 11 28 22 38 47 43 18 4 50 16 71
26 l37 19 0 -21 c0 -23 -61 -141 -110 -214 -39 -58 -45 -69 -33 -62 10 6 133
-30 133 -40 0 -2 -51 -1 -112 2 l-113 7 -48 -56 c-27 -31 -52 -56 -57 -56 -4
0 -15 42 -25 93 -9 50 -27 136 -41 189 -13 53 -24 106 -24 118 0 17 -3 19 -19
11 -14 -8 -23 -5 -38 12 -29 32 -35 56 -23 93 16 47 39 52 72 15 15 -17 32
-31 37 -31 5 0 17 24 27 53 20 55 26 203 11 245 -8 22 -7 22 35 16 24 -4 54
-10 68 -14z m260 -40 c0 -5 -4 -10 -10 -10 -5 0 -10 5 -10 10 0 6 5 10 10 10
6 0 10 -4 10 -10z m490 -8 c0 -9 6 -12 16 -8 8 3 12 2 9 -4 -3 -6 -14 -10 -24
-10 -9 0 -22 -5 -29 -12 -7 -7 -12 -9 -12 -5 0 3 -19 0 -41 -8 -51 -18 -176
-19 -208 -1 -20 11 -21 14 -7 19 10 4 14 3 11 -2 -12 -21 165 -24 178 -4 4 7
14 10 22 7 8 -4 15 -1 15 5 0 6 6 11 14 11 8 0 16 6 19 13 7 18 37 17 37 -1z
m-290 -83 c0 -5 -7 -9 -15 -9 -15 0 -20 12 -9 23 8 8 24 -1 24 -14z m-1775 -6
c-4 -10 -8 -24 -8 -30 -1 -18 -24 -16 -31 2 -5 15 18 45 36 45 6 0 7 -7 3 -17z
m1856 -36 c-12 -31 -23 -34 -42 -11 -11 14 -10 19 10 36 30 23 45 11 32 -25z
m189 31 c0 -4 -12 -8 -26 -8 -14 0 -23 4 -20 8 2 4 14 8 25 8 12 0 21 -4 21
-8z m-286 -14 c9 -3 16 -10 16 -14 0 -10 -38 -1 -46 11 -6 10 7 12 30 3z m214
-5 c-18 -12 -91 -11 -84 0 4 5 27 9 52 9 28 -1 40 -4 32 -9z m-216 -65 c-4
-44 19 -61 52 -39 30 20 31 18 10 -24 -13 -25 -13 -35 -4 -46 17 -20 33 -19
65 6 l27 22 -7 -54 c-3 -30 -7 -84 -9 -121 -4 -88 -29 -123 -52 -73 -10 20 -9
27 7 41 29 26 23 37 -6 12 -31 -27 -31 -34 -1 -79 14 -20 28 -48 31 -62 4 -15
13 -31 21 -38 20 -16 17 -29 -6 -29 -38 0 -24 -43 30 -91 46 -40 50 -47 45
-77 -8 -45 -39 -115 -58 -131 -27 -21 -39 -4 -21 31 15 28 15 35 -1 84 -9 30
-21 54 -26 54 -17 0 -76 138 -89 207 -8 43 -21 76 -34 89 -12 12 -29 32 -39
45 -16 21 -16 24 -1 29 15 5 15 7 0 19 -9 7 -16 22 -16 33 0 18 2 18 31 -6 36
-30 54 -34 44 -8 -14 31 -11 57 5 54 11 -3 12 -1 3 8 -19 20 -36 1 -29 -33 l6
-31 -24 23 c-37 35 -58 22 -50 -31 6 -39 23 -68 68 -119 7 -9 19 -49 26 -87
11 -70 67 -203 90 -217 7 -4 18 -22 26 -41 12 -29 12 -36 -4 -63 -9 -17 -21
-31 -27 -31 -5 1 -55 21 -110 45 -112 49 -112 50 -114 152 -1 53 2 63 19 68
11 3 20 10 20 15 0 4 -9 10 -20 13 -18 5 -20 14 -20 79 0 95 13 170 52 288 40
123 55 152 76 148 12 -3 16 -12 14 -34z m274 -9 c3 -25 5 -47 3 -49 -2 -2 -28
-6 -58 -10 -52 -7 -53 -7 -47 16 3 13 6 35 6 50 0 27 11 33 67 37 18 1 23 -6
29 -44z m-2097 3 c5 -18 13 -48 16 -66 4 -20 19 -42 41 -59 40 -30 32 -43 -26
-43 -66 1 -93 42 -84 127 9 78 35 98 53 41z m1880 19 c8 -10 7 -17 -1 -25 -18
-18 -38 -14 -38 6 0 32 20 42 39 19z m376 -12 c0 -11 -7 -20 -15 -21 -8 0 -28
-6 -43 -12 -41 -17 -42 -15 -5 23 35 38 63 42 63 10z m-275 -14 c0 -11 -4 -22
-9 -25 -12 -8 -34 21 -26 34 11 17 35 11 35 -9z m861 -240 c-7 -102 -14 -209
-18 -238 l-6 -51 -43 21 c-53 25 -55 42 -9 61 35 15 48 47 25 61 -6 4 -9 -3
-7 -16 1 -18 -5 -25 -30 -32 -18 -5 -35 -18 -38 -28 -3 -10 -15 -21 -26 -24
-10 -4 -37 -32 -58 -64 -58 -86 -154 -163 -228 -186 -22 -6 -22 -5 -9 26 8 19
26 37 45 45 27 11 30 16 22 33 -9 16 -4 26 30 63 144 155 159 175 159 223 0
28 4 45 12 45 6 0 8 3 4 7 -13 14 -36 -30 -36 -68 0 -76 -65 -94 -88 -25 -14
45 -4 99 28 139 11 14 20 32 20 41 0 14 6 14 53 -4 28 -11 55 -20 60 -20 16 0
5 22 -25 49 l-33 29 29 24 c16 12 61 44 100 71 67 44 71 46 74 25 2 -11 -1
-105 -7 -207z m-897 200 c9 -14 -3 -39 -21 -46 -24 -9 -37 9 -24 34 12 22 36
28 45 12z m544 -41 c60 -21 190 -106 179 -117 -3 -3 -31 5 -63 16 l-57 22 18
-27 c26 -40 6 -50 -51 -25 -26 12 -62 33 -80 46 -30 23 -33 24 -31 6 0 -11 4
-18 8 -15 4 2 29 -9 55 -26 26 -16 54 -30 62 -30 11 0 12 -7 7 -27 -8 -29 -10
-112 -4 -198 4 -64 -17 -97 -85 -133 -44 -23 -63 -27 -136 -27 -109 1 -190 34
-255 107 -23 26 -48 48 -53 48 -22 0 -52 53 -52 92 0 42 20 59 45 38 8 -7 15
-8 15 -4 0 5 -9 15 -20 22 -64 40 55 216 171 251 59 18 255 7 327 -19z m-462
-28 c-18 -16 -18 -16 -6 6 6 13 14 21 18 18 3 -4 -2 -14 -12 -24z m-1871 -57
c0 -5 -10 -11 -22 -13 -16 -2 -23 2 -23 13 0 11 7 15 23 13 12 -2 22 -7 22
-13z m505 -54 c30 -27 52 -53 47 -57 -4 -4 -38 3 -75 15 -37 13 -73 25 -81 27
-10 3 -7 12 14 34 16 17 31 30 34 30 3 0 31 -23 61 -49z m-483 -16 c-37 -25
-67 -49 -67 -53 0 -4 14 -19 32 -33 51 -43 33 -65 -114 -139 -158 -81 -227
-128 -310 -211 -52 -52 -68 -64 -72 -51 -10 35 -18 271 -11 325 l7 56 127 40
c110 35 230 65 391 99 84 18 86 13 17 -33z m1027 -2 c4 -16 9 -35 12 -44 3
-13 -5 -18 -33 -24 -21 -3 -48 -9 -60 -12 -18 -4 -22 0 -25 24 -2 23 4 32 37
55 51 34 61 34 69 1z m459 -31 c-7 -48 -14 -54 -51 -50 l-31 3 29 47 c36 57
62 57 53 0z m-1070 -14 c1 -1 -13 -18 -30 -36 l-33 -34 0 30 c0 17 -3 37 -6
45 -4 13 1 14 31 7 20 -5 37 -10 38 -12z m-78 -20 c9 -50 -10 -145 -45 -223
-39 -87 -227 -383 -252 -396 -24 -13 -56 5 -64 36 -7 26 -30 29 -57 6 -42 -34
-45 85 -7 234 25 96 100 285 113 285 6 0 21 -10 33 -21 l23 -21 -26 -57 c-79
-174 -133 -319 -132 -356 0 -22 3 -34 6 -27 2 6 10 9 16 5 6 -4 8 0 4 10 -10
26 8 20 23 -8 7 -14 17 -25 22 -25 5 0 0 12 -11 26 -27 34 -26 43 2 42 30 -2
47 -16 40 -34 -3 -8 1 -14 11 -14 21 0 76 111 164 332 84 210 98 238 117 238
8 0 17 -14 20 -32z m245 7 c11 -13 10 -14 -4 -9 -9 3 -16 10 -16 15 0 13 6 11
20 -6z m300 1 c0 -2 -13 -20 -30 -41 -39 -49 -39 -67 0 -25 16 17 34 29 40 25
12 -7 3 -74 -11 -89 -5 -5 -35 4 -72 22 -36 18 -71 32 -78 32 -8 0 20 18 61
40 71 37 90 45 90 36z m-347 -30 l37 -16 -56 -56 c-72 -72 -142 -181 -171
-269 -14 -42 -22 -56 -19 -35 3 19 8 89 12 155 7 129 18 166 65 217 33 34 59
35 132 4z m517 -20 c0 -11 -18 -15 -70 -18 -75 -3 -95 7 -32 17 20 4 44 8 52
10 35 7 50 4 50 -9z m-342 -51 c2 -1 -19 -25 -45 -52 -52 -55 -119 -161 -147
-235 l-18 -47 -49 6 c-40 5 -49 3 -49 -9 0 -9 7 -21 15 -28 20 -16 19 -23 -6
-38 -30 -19 -61 19 -55 68 11 96 72 204 176 313 l66 68 55 -21 c30 -12 55 -23
57 -25z m762 35 c0 -12 -28 -70 -34 -70 -2 0 -18 5 -37 11 -19 6 -40 13 -47
15 -10 3 -9 9 4 29 14 21 24 25 65 25 28 0 49 -5 49 -10z m-2049 -127 c0 -176
12 -272 39 -327 132 -273 445 -410 990 -436 313 -14 698 -12 897 5 235 21 565
77 708 120 195 59 406 161 476 229 41 40 51 61 90 194 18 61 36 112 40 112 4
0 28 -23 53 -50 51 -57 86 -140 94 -217 9 -96 -70 -216 -203 -306 -220 -151
-646 -283 -1095 -341 -267 -35 -777 -67 -1068 -68 -503 -1 -1034 138 -1300
341 -177 134 -241 227 -242 351 -1 131 57 244 171 338 60 49 305 182 335 182
11 0 14 -27 15 -127z m1517 63 l20 -33 -29 10 c-23 9 -29 18 -29 40 0 34 11
29 38 -17z m132 18 c6 -14 10 -37 10 -52 l0 -27 -19 30 c-11 18 -35 38 -60 47
-23 9 -39 13 -36 8 3 -5 21 -14 41 -20 32 -11 40 -22 70 -86 18 -41 36 -74 38
-74 3 0 31 27 63 61 l58 61 120 -7 c149 -9 175 -17 120 -35 -22 -7 -81 -28
-131 -47 l-90 -34 -12 -137 c-7 -76 -22 -200 -32 -277 -11 -77 -20 -154 -20
-173 0 -72 -1 -72 -193 -72 -95 0 -178 4 -185 8 -10 7 -7 25 15 83 l28 74 112
56 c179 89 165 91 -27 4 -136 -62 -271 -115 -290 -115 -9 0 -21 -5 -27 -11
-17 -17 -136 -24 -163 -9 -20 11 -22 18 -18 66 4 47 2 53 -15 56 -54 8 -15 58
44 58 60 0 79 -14 79 -58 0 -38 0 -38 40 -37 27 0 40 4 40 14 0 9 -8 11 -25 7
-18 -5 -27 -2 -31 9 -10 26 5 30 40 11 l34 -18 61 36 c140 82 306 191 373 247
40 32 76 59 81 59 4 0 7 5 7 11 0 11 -15 1 -87 -57 l-38 -32 -25 20 -25 21 32
-7 c41 -9 54 11 22 36 l-24 18 28 -10 c36 -13 37 -13 37 5 0 9 -11 21 -25 27
-28 13 -30 19 -13 63 10 31 8 37 -50 123 -37 56 -56 93 -49 96 7 2 33 5 60 5
42 1 49 -2 57 -25z m-262 -25 l61 -21 -50 -65 c-44 -58 -145 -249 -164 -311
-3 -12 -18 -28 -33 -36 -26 -13 -27 -13 -37 18 -5 17 -19 35 -31 40 -11 5 -26
22 -31 37 -9 23 -7 37 13 79 53 114 173 278 205 280 3 0 33 -9 67 -21z m-873
-36 c-1 -10 -10 -36 -18 -58 -50 -139 -57 -167 -58 -257 l-1 -67 -29 15 c-16
8 -29 12 -29 9 0 -3 -14 2 -32 11 -44 23 -158 56 -190 55 -16 -1 -28 3 -28 9
0 5 -7 7 -15 4 -8 -4 -15 -1 -15 5 0 6 4 11 9 11 5 0 13 9 16 21 5 16 9 18 21
8 12 -9 13 -9 9 3 -7 18 19 43 35 33 6 -4 9 -2 8 3 -3 9 47 62 58 62 2 0 14
10 25 21 17 17 23 19 30 8 7 -11 9 -11 9 2 0 9 12 22 28 30 15 8 30 18 34 24
5 6 8 4 8 -5 1 -13 2 -13 13 0 17 22 64 50 82 50 8 0 15 5 15 10 0 6 4 10 9
10 6 0 8 -8 6 -17z m1014 -9 c58 -23 60 -44 12 -115 -22 -34 -45 -76 -51 -94
-10 -29 -26 -42 -116 -90 -58 -32 -108 -55 -110 -52 -10 10 119 246 166 305
28 34 53 62 55 62 3 0 23 -7 44 -16z m-809 -127 c0 -4 -18 -45 -39 -91 -37
-79 -40 -83 -66 -78 -27 5 -27 6 -21 64 3 33 15 80 26 105 11 26 19 48 17 50
-17 16 -77 -129 -77 -187 0 -20 -5 -30 -15 -30 -23 0 -19 21 31 145 l46 114
49 -42 c27 -23 49 -45 49 -50z m2441 67 c48 -24 50 -27 44 -57 -13 -61 -48
-177 -54 -177 -3 0 -17 21 -30 46 -14 25 -43 62 -66 82 l-42 36 30 48 c35 56
47 58 118 22z m-1107 -50 c4 -31 5 -58 3 -60 -2 -2 -23 4 -46 13 -38 15 -42
19 -36 42 6 28 39 61 60 61 7 0 15 -21 19 -56z m-434 15 c10 -18 5 -26 -33
-65 -57 -56 -74 -57 -46 -1 47 91 60 102 79 66z m330 -9 c0 -15 -7 -20 -25
-20 -14 0 -25 4 -25 8 0 7 30 27 48 31 1 1 2 -8 2 -19z m4 -60 c4 0 -7 -17
-26 -37 -18 -21 -45 -56 -58 -78 l-25 -40 -3 79 c-4 108 -4 109 55 91 26 -8
52 -15 57 -15z m515 -22 c1 6 5 12 10 12 11 0 8 -71 -4 -89 -5 -10 -4 -16 3
-19 7 -2 12 -9 12 -17 0 -21 23 -34 83 -43 56 -9 58 -9 74 19 9 15 20 26 25
23 4 -3 8 4 8 16 0 12 -4 18 -10 15 -6 -4 -9 5 -8 19 2 17 8 26 20 26 22 0 23
-5 12 -185 -3 -66 -24 -155 -40 -179 -8 -11 -35 -26 -61 -33 -65 -17 -66 -16
-58 10 29 96 31 251 2 247 -14 -1 -67 30 -67 40 0 6 -10 10 -22 10 -13 0 -29
4 -36 8 -14 9 -6 42 10 42 5 0 6 5 3 10 -3 6 -1 10 4 10 6 0 10 3 10 8 -1 4 2
23 6 42 7 29 9 31 16 15 4 -11 8 -14 8 -7z m574 -18 c18 -17 24 -28 14 -24
-13 5 -16 2 -11 -10 3 -8 11 -14 17 -13 7 1 11 -4 9 -11 -1 -8 2 -11 7 -8 5 4
12 2 15 -3 10 -16 -12 -22 -26 -7 -8 7 -24 17 -36 20 -12 4 -22 12 -22 17 0 6
-13 15 -29 20 -34 12 -32 35 2 42 12 2 23 5 25 6 2 0 17 -13 35 -29z m-1007 4
c22 -9 50 -21 63 -26 24 -9 24 -9 -26 -61 -73 -76 -116 -133 -157 -208 -37
-68 -86 -199 -86 -231 0 -13 -7 -18 -25 -18 -31 0 -31 1 -5 161 28 175 36 206
77 272 35 59 96 127 112 127 5 0 26 -7 47 -16z m575 0 c29 -14 30 -18 24 -57
-4 -23 -9 -45 -11 -48 -9 -16 -57 -18 -89 -5 -37 16 -42 31 -29 95 6 27 10 31
41 31 19 0 48 -7 64 -16z m-1049 -85 l-27 -81 -102 -49 c-105 -50 -240 -99
-275 -99 -20 0 -48 22 -48 37 0 17 66 59 200 125 74 36 164 84 200 107 36 22
68 40 72 41 3 0 -6 -36 -20 -81z m1222 73 c7 -11 -31 -72 -44 -72 -11 0 -14
63 -3 73 9 10 41 9 47 -1z m151 -33 c4 -6 -2 -17 -14 -26 -50 -35 -136 -174
-162 -263 -13 -46 -24 -60 -46 -60 -10 0 -10 7 -2 28 6 15 16 79 22 142 l12
115 75 37 c78 39 104 45 115 27z m-688 -43 l52 -26 -42 -43 c-61 -60 -142
-188 -173 -271 -14 -39 -29 -78 -34 -86 -5 -11 -34 -17 -99 -24 -51 -4 -95 -5
-99 -2 -13 14 53 181 106 264 30 48 83 119 118 159 73 81 71 80 171 29z m767
3 c20 -12 36 -24 36 -28 0 -3 -14 -23 -30 -43 -17 -21 -42 -62 -55 -93 -23
-52 -30 -58 -88 -85 -34 -15 -73 -31 -85 -35 -21 -6 -23 -4 -17 17 25 90 156
288 190 288 8 0 30 -9 49 -21z m-2759 -60 c58 -17 193 -81 261 -124 103 -65
354 -248 354 -257 0 -18 -232 27 -371 72 -134 44 -236 100 -314 173 -64 58
-133 156 -120 169 6 6 132 -16 190 -33z m1324 15 c-14 -18 -24 -11 -15 11 3 9
11 13 16 10 8 -5 7 -11 -1 -21z m-952 -16 c-3 -8 -6 -5 -6 6 -1 11 2 17 5 13
3 -3 4 -12 1 -19z m1753 1 c30 -11 58 -23 63 -26 4 -2 -14 -28 -39 -56 -53
-58 -162 -220 -170 -254 -6 -21 -9 -22 -111 -38 -36 -6 -43 -4 -43 10 0 23 61
152 102 216 28 43 133 169 141 169 1 0 27 -9 57 -21z m-1302 -46 c3 -43 0 -52
-16 -57 -11 -4 -27 -4 -36 0 -22 8 -21 44 2 45 14 0 13 2 -5 11 -49 24 -39 61
15 56 37 -3 37 -3 40 -55z m72 14 c0 -37 -12 -67 -26 -67 -29 0 -46 74 -22 98
16 16 48 -4 48 -31z m1959 27 l22 -16 -22 -25 c-30 -31 -119 -86 -119 -72 0
27 66 129 85 129 6 0 21 -7 34 -16z m-597 -51 c24 -22 23 -76 -4 -175 -17 -62
-26 -79 -42 -83 -38 -8 -188 -35 -197 -35 -15 0 10 51 66 131 62 91 136 179
149 179 5 0 18 -7 28 -17z m-1422 -68 c-14 -17 -56 -20 -65 -6 -3 5 7 12 22
14 56 8 56 8 43 -8z m205 -35 c-13 -20 -67 -42 -78 -31 -7 7 -6 12 4 15 8 2
28 9 44 14 17 6 31 11 33 11 2 1 0 -4 -3 -9z m-325 -45 c0 -8 5 -15 10 -15 22
0 7 -17 -45 -48 -30 -18 -55 -37 -55 -43 0 -13 4 -12 61 21 28 17 52 30 53 28
1 -2 7 -22 13 -46 l10 -43 -38 -19 c-21 -11 -44 -20 -50 -20 -7 0 -35 21 -63
48 -29 26 -60 52 -71 58 -16 9 -9 13 46 33 35 13 75 32 89 42 31 23 40 23 40
4z m417 -102 c2 -6 -27 -30 -65 -52 -63 -38 -74 -41 -140 -41 -40 0 -72 3 -72
8 1 21 25 34 125 66 114 35 146 39 152 19z m-14 -73 c-4 -14 -14 -20 -34 -20
-36 0 -36 5 -1 24 36 20 41 20 35 -4z m946 -314 c-15 -13 -49 -25 -49 -17 0 5
8 12 18 14 24 6 36 8 31 3z m-59 -18 c0 -19 -93 -48 -106 -33 -12 12 10 40 24
32 4 -3 16 -1 27 4 30 12 55 10 55 -3z m-1865 -18 c38 0 181 -33 192 -44 3 -3
-8 -8 -23 -12 -16 -4 -35 -11 -41 -16 -7 -6 -20 -8 -28 -4 -9 3 -13 2 -10 -3
5 -9 -6 -14 -57 -28 -13 -3 -56 -8 -96 -9 -88 -4 -97 7 -61 73 24 46 56 68 74
52 5 -5 27 -9 50 -9z m1585 -25 c0 -5 -135 -69 -142 -67 -5 1 -8 -2 -8 -7 0
-5 -13 -14 -29 -21 -16 -6 -32 -18 -35 -25 -3 -8 -13 -11 -25 -8 -12 3 -21 1
-21 -5 0 -11 -47 -27 -68 -23 -8 1 -20 -3 -28 -10 -8 -6 -23 -9 -33 -6 -11 3
-21 1 -23 -5 -3 -8 -48 -18 -148 -33 -14 -2 -25 -4 -25 -6 0 -1 -20 -3 -46 -4
-25 -1 -49 -4 -55 -6 -5 -3 -45 -4 -89 -1 -44 2 -110 4 -147 5 -38 1 -68 5
-68 10 0 5 -6 7 -12 4 -7 -2 -21 0 -32 5 -15 8 -16 12 -5 19 10 7 6 8 -12 4
-27 -7 -95 25 -82 38 3 4 -2 7 -13 7 -11 0 -31 11 -46 25 -15 14 -39 30 -53
35 -15 6 -23 14 -20 20 3 5 0 10 -7 10 -9 1 -9 3 2 9 8 4 44 5 80 2 108 -10
742 -4 749 7 3 5 47 10 96 11 50 1 108 4 130 6 132 13 159 16 162 19 4 3 53
-5 53 -9z m116 -89 c-2 -41 -7 -79 -11 -86 -4 -6 -1 -33 5 -60 12 -48 13 -50
48 -52 65 -3 150 6 192 21 14 5 45 14 70 21 25 6 53 16 62 21 10 5 19 5 23 -1
9 -15 -5 -32 -22 -26 -10 4 -13 2 -10 -8 4 -9 -9 -19 -40 -31 -25 -10 -53 -25
-63 -34 -29 -28 -104 -60 -135 -57 -16 2 -77 4 -135 5 -69 2 -98 5 -85 11 20
8 20 9 -1 9 -30 1 -90 75 -97 120 -2 9 -15 28 -30 43 -15 15 -27 34 -27 43 0
8 0 18 0 22 0 4 7 8 17 9 10 2 19 7 21 13 2 5 25 15 52 22 27 7 47 15 45 19
-2 3 16 12 41 19 24 7 44 17 44 22 0 5 9 9 20 9 18 0 19 -6 16 -74z m423 -137
c-16 -10 -23 -4 -14 10 3 6 11 8 17 5 6 -4 5 -9 -3 -15z"/>
<path d="M14213 5428 c-12 -6 -24 -17 -27 -24 -7 -18 4 -17 28 1 11 8 29 15
40 15 17 -1 16 -4 -10 -18 -48 -27 -78 -51 -72 -57 3 -3 23 5 43 20 21 14 48
25 61 25 29 0 32 25 5 40 -24 12 -39 12 -68 -2z"/>
<path d="M14280 5280 c0 -5 5 -10 10 -10 6 0 10 5 10 10 0 6 -4 10 -10 10 -5
0 -10 -4 -10 -10z"/>
<path d="M14132 5093 c-14 -35 -6 -216 12 -263 39 -102 75 -128 141 -98 21 9
25 18 25 55 0 35 6 50 34 80 18 21 39 49 45 63 12 24 11 24 -4 5 -35 -45 -99
-105 -112 -105 -23 0 -101 79 -123 126 -17 34 -20 53 -15 86 4 24 12 46 17 49
7 4 6 9 -1 13 -6 4 -14 -1 -19 -11z m113 -343 c3 -5 -3 -10 -14 -10 -11 0 -23
5 -26 10 -3 6 3 10 14 10 11 0 23 -4 26 -10z"/>
<path d="M9430 4626 l0 -146 40 0 40 0 0 71 c0 62 2 70 18 67 14 -3 18 -17 22
-83 l5 -80 35 0 35 0 3 80 c2 44 0 90 -3 103 -9 37 -42 62 -79 62 -32 0 -35 3
-38 33 -3 29 -6 32 -40 35 l-38 3 0 -145z"/>
<path d="M9190 4700 c0 -38 2 -40 30 -40 l29 0 3 -102 3 -103 40 0 40 0 3 102
3 102 32 3 c29 3 32 6 32 38 l0 35 -107 3 -108 3 0 -41z"/>
<path d="M9695 4708 c-37 -21 -44 -41 -45 -121 0 -70 3 -81 25 -102 52 -52
171 -22 177 45 3 22 -1 25 -35 28 -26 2 -39 -1 -43 -12 -9 -23 -44 -20 -44 4
0 16 8 19 63 22 l62 3 -1 49 c0 40 -5 53 -28 72 -30 27 -96 32 -131 12z m75
-68 c0 -5 -9 -10 -20 -10 -11 0 -20 5 -20 10 0 6 9 10 20 10 11 0 20 -4 20
-10z"/>
<path d="M8768 4254 c-3 -184 -5 -208 -20 -218 -34 -21 -53 4 -56 73 l-3 61
-84 0 -85 0 0 -72 c1 -150 67 -217 215 -217 94 -1 168 42 194 112 7 17 11 117
11 248 l0 219 -85 0 -85 0 -2 -206z"/>
<path d="M9080 4404 c-46 -20 -68 -41 -94 -89 -18 -35 -21 -56 -21 -165 0
-109 3 -130 21 -165 41 -75 97 -105 196 -105 114 1 188 57 204 158 l7 42 -82
0 c-78 0 -82 -1 -91 -25 -7 -19 -17 -25 -39 -25 -36 0 -53 20 -49 57 l3 28
128 3 127 3 0 77 c-1 153 -67 223 -212 222 -35 -1 -79 -8 -98 -16z m134 -136
c20 -29 12 -38 -34 -38 -46 0 -58 14 -34 41 23 25 49 24 68 -3z"/>
<path d="M9467 4414 c-4 -4 -7 -27 -7 -51 0 -39 -2 -43 -25 -43 -26 0 -26 0
-23 -77 3 -71 5 -78 24 -81 20 -3 22 -10 26 -111 7 -164 41 -207 177 -218 l71
-6 0 77 c0 70 -2 76 -21 76 -50 0 -59 15 -59 100 l0 79 38 3 37 3 3 78 3 77
-40 0 -40 0 -3 48 -3 47 -75 3 c-42 1 -79 0 -83 -4z"/>
<path d="M9820 4397 c-55 -29 -84 -82 -84 -152 0 -94 49 -146 160 -166 60 -11
76 -22 67 -46 -8 -21 -54 -16 -60 7 -5 18 -14 20 -90 20 l-85 0 7 -37 c16 -89
67 -131 165 -140 121 -11 211 45 225 140 17 111 -32 172 -157 198 -61 13 -79
24 -71 45 8 22 50 17 56 -6 5 -19 12 -21 84 -18 92 4 99 13 61 88 -31 60 -88
90 -174 90 -44 0 -73 -6 -104 -23z"/>
<path d="M10263 4409 c-44 -13 -100 -70 -112 -116 -14 -50 -14 -146 1 -195 29
-97 166 -155 279 -116 95 32 129 88 129 213 0 120 -29 175 -113 210 -40 16
-133 19 -184 4z m121 -155 c21 -20 22 -107 2 -124 -24 -19 -59 -8 -74 23 -33
69 25 149 72 101z"/>
<path d="M10582 4173 l3 -248 75 0 75 0 5 135 c3 74 9 141 13 148 12 18 45 14
57 -7 5 -11 10 -86 10 -170 l0 -151 81 0 80 0 -3 199 c-3 183 -5 202 -24 227
-41 56 -70 69 -145 68 -66 0 -69 1 -69 23 0 22 -3 23 -80 23 l-80 0 2 -247z"/>
<path d="M11090 4398 c-106 -54 -122 -213 -28 -281 15 -11 58 -28 95 -37 55
-13 68 -20 68 -36 0 -28 -51 -32 -60 -5 -6 19 -14 21 -87 21 l-81 0 6 -42 c7
-54 33 -88 87 -115 92 -48 227 -20 277 56 18 26 23 48 23 95 0 104 -39 144
-162 169 -52 10 -63 15 -63 32 0 29 40 32 55 5 10 -19 19 -21 88 -18 l77 3 -4
30 c-6 59 -49 114 -104 134 -49 19 -138 13 -187 -11z"/>
<path d="M13078 4883 c7 -3 16 -2 19 1 4 3 -2 6 -13 5 -11 0 -14 -3 -6 -6z"/>
<path d="M13115 4761 c18 -9 18 -10 2 -10 -10 -1 -29 -12 -41 -26 -24 -25 -24
-26 -7 -76 11 -36 22 -51 39 -55 30 -8 52 12 52 46 0 24 -3 27 -22 23 -13 -3
-29 -10 -36 -16 -7 -5 -15 -8 -17 -5 -10 9 6 37 23 41 10 3 5 5 -10 6 -48 2
-26 31 23 31 12 0 19 7 19 18 0 14 6 18 28 15 15 -2 76 -7 137 -11 105 -7 109
-8 116 -32 7 -23 7 -23 8 7 1 17 6 33 13 35 6 2 -33 4 -88 5 -54 0 -135 3
-179 6 -51 4 -73 3 -60 -2z"/>
<path d="M12966 4684 c-20 -59 -20 -97 -1 -134 11 -21 23 -30 40 -30 14 0 25
5 25 11 0 6 -9 9 -20 6 -39 -10 -55 50 -34 131 18 69 12 79 -10 16z"/>
<path d="M13305 4720 c-7 -11 1 -15 50 -24 l30 -6 -24 20 c-25 22 -46 26 -56
10z"/>
<path d="M13362 4638 c6 -18 28 -21 28 -4 0 9 -7 16 -16 16 -9 0 -14 -5 -12
-12z"/>
<path d="M13296 4615 c-16 -12 -17 -17 -6 -30 26 -32 90 -7 76 30 -7 19 -45
19 -70 0z"/>
<path d="M12930 4510 c0 -11 38 -32 50 -28 5 2 -4 11 -20 20 -17 9 -30 13 -30
8z"/>
<path d="M13163 4496 l-32 -12 22 -39 c26 -46 71 -60 94 -29 16 22 17 42 1 26
-7 -7 -22 -12 -33 -12 -24 0 -59 32 -48 43 11 12 78 8 91 -5 20 -20 26 1 7 22
-20 22 -53 24 -102 6z"/>
<path d="M12206 4745 c-40 -21 -55 -44 -56 -82 0 -45 14 -41 33 8 11 29 25 44
47 52 16 6 29 16 27 21 -5 16 -21 17 -51 1z"/>
<path d="M12450 4705 c-21 -25 -1 -37 27 -15 16 13 34 18 47 15 17 -5 18 -4 6
4 -22 15 -66 13 -80 -4z"/>
<path d="M12482 4644 c-28 -19 -28 -31 1 -55 54 -45 121 7 69 54 -23 21 -41
21 -70 1z m40 -6 c-7 -7 -12 -20 -12 -30 0 -10 -4 -18 -10 -18 -11 0 -14 43
-3 53 3 4 13 7 22 7 12 0 12 -3 3 -12z"/>
<path d="M12410 4485 c0 -8 5 -15 10 -15 6 0 10 7 10 15 0 8 -4 15 -10 15 -5
0 -10 -7 -10 -15z"/>
<path d="M12520 4449 c-19 -6 -46 -22 -59 -37 -22 -25 -23 -27 -6 -31 10 -2
25 -10 33 -17 15 -16 51 -10 64 10 7 10 12 87 6 85 -2 0 -19 -5 -38 -10z m10
-54 c-16 -19 -50 -20 -50 0 0 18 41 37 54 24 5 -5 4 -14 -4 -24z"/>
<path d="M13726 4609 c-15 -17 -26 -43 -26 -59 0 -16 -5 -32 -11 -36 -6 -3 3
-14 22 -26 l33 -20 18 22 c10 12 18 27 17 34 0 6 -5 1 -11 -11 -16 -34 -27
-28 -21 12 4 26 2 36 -11 41 -21 8 -20 27 3 48 27 25 41 12 42 -37 2 -32 3
-35 6 -13 6 39 -4 76 -21 76 -8 0 -26 -14 -40 -31z"/>
<path d="M13593 4356 c-25 -21 -27 -30 -29 -97 l-2 -74 6 67 c6 55 12 72 36
97 35 37 29 41 -11 7z"/>
<path d="M14121 4252 c-1 -21 18 -52 33 -52 8 0 19 6 25 14 9 11 7 12 -12 9
-17 -3 -26 2 -34 19 -7 13 -12 17 -12 10z"/>
<path d="M14986 4098 c-15 -20 -16 -21 -16 -4 0 25 -5 18 -14 -16 -5 -22 -3
-28 10 -28 16 0 16 -6 -1 -55 -4 -13 -1 -12 9 5 8 14 15 39 16 56 0 31 24 63
37 50 4 -3 1 -21 -5 -39 -15 -42 -15 -48 1 -42 6 3 13 25 15 50 2 39 0 45 -17
45 -11 0 -27 -10 -35 -22z"/>
<path d="M14460 4300 c41 -5 93 -16 115 -25 59 -26 95 -35 95 -24 0 5 -6 9
-13 9 -8 0 -41 11 -75 25 -47 19 -78 25 -129 24 l-68 -2 75 -7z"/>
<path d="M14336 4249 c10 -19 21 -63 24 -99 l7 -65 2 58 c1 56 -18 119 -41
133 -5 4 -2 -9 8 -27z"/>
<path d="M14510 4250 c-12 -8 -12 -10 5 -10 11 0 27 5 35 10 12 8 12 10 -5 10
-11 0 -27 -5 -35 -10z"/>
<path d="M14525 4160 c-17 -19 -17 -22 -2 -37 13 -13 19 -14 31 -3 20 15 20
34 3 49 -11 8 -18 6 -32 -9z"/>
<path d="M14706 4124 c-4 -10 -2 -22 3 -27 14 -14 43 0 39 20 -4 24 -34 28
-42 7z"/>
<path d="M14314 4100 c1 -30 36 -101 36 -75 0 6 3 21 5 35 5 21 4 22 -3 5 -8
-17 -11 -13 -24 25 -16 45 -16 45 -14 10z"/>
<path d="M14595 4080 c-8 -13 5 -13 25 0 13 8 13 10 -2 10 -9 0 -20 -4 -23
-10z"/>
<path d="M14640 4086 c0 -2 7 -7 16 -10 8 -3 12 -2 9 4 -6 10 -25 14 -25 6z"/>
<path d="M14486 4018 c-11 -43 -6 -96 12 -117 21 -26 85 -39 107 -21 8 7 15
23 15 36 0 18 8 25 33 32 28 8 24 9 -26 8 -54 -1 -61 1 -88 32 -16 18 -27 37
-24 42 4 6 0 10 -8 10 -8 0 -17 -10 -21 -22z"/>
<path d="M14710 3986 c0 -8 -6 -17 -12 -19 -8 -4 -9 -6 -2 -6 18 -1 37 26 24
34 -5 3 -10 0 -10 -9z"/>
<path d="M13535 2720 c3 -5 8 -10 11 -10 2 0 4 5 4 10 0 6 -5 10 -11 10 -5 0
-7 -4 -4 -10z"/>
</g>
</svg>
